# xmcd
#
# Track frame offsets:
#	150
#	21776
#	37985
#	51179
#	77770
#	94611
#	110702
#	120961
#	139283
#	158283
#	177422
#	193172
#
# Disc length: 2787 seconds
#
# Revision: 1
# Processed by: cddbd v1.4PL0 Copyright (c) Steve Scherf et al.
# Submitted via: audiograbber 1.82.01
#
DISCID=940ae10c
DTITLE=The Chickenhunters - Chickendance
DYEAR=2003
DGENRE=Blues
TTITLE0=Chickendance
TTITLE1=Drivin' Me To Drink
TTITLE2=Long Grey Mare
TTITLE3=Everybody Knows About My Good Thing
TTITLE4=Start A New Life
TTITLE5=Makin' Love Is Fine
TTITLE6=She's My Baby
TTITLE7=Dr. Brown
TTITLE8=Nobody Loves Me
TTITLE9=Yellow Moon
TTITLE10=The Man On The Radio
TTITLE11=The Man On The Radio (Orchestral Version)
EXTD=
EXTT0=
EXTT1=
EXTT2=
EXTT3=
EXTT4=
EXTT5=
EXTT6=
EXTT7=
EXTT8=
EXTT9=
EXTT10=
EXTT11=
PLAYORDER=
